# xmcd
#
# Track frame offsets:
# 150
# 14864
# 29465
# 43356
# 57606
# 70641
# 85727
# 96414
# 109741
# 125940
# 140764
# 155750
# 171690
# 185182
# 199797
# 217172
# 231799
# 246426
#
# Disc length: 3411 seconds
#
#
# Revision: 0
# Processed by: cddbd v1.5.2PL0 Copyright (c) Steve Scherf et al.
# Submitted via: FreeRIP 2.944 
#
DISCID=2e0d5112
DTITLE=A. Frank Willis - Over the Years Vol. 1
DYEAR=1900
DGENRE=Country
TTITLE0=I'm My Own Grandpa
TTITLE1=Take Me As I Am
TTITLE2=Lay Your Ego Down
TTITLE3=Grandpa's Motor Boat
TTITLE4=One of the Great Love Affairs
TTITLE5=Forever Don't Last Too Long
TTITLE6=Cape Breton Jig (featuring Don MacLean)
TTITLE7=Newfie Shiek
TTITLE8=Any Kind of Music
TTITLE9=Tryin' to Forget You
TTITLE10=Flying Like A Bird
TTITLE11=You and I Underneath the Moon
TTITLE12=I Lobster Never Flounder
TTITLE13=It's Over Now
TTITLE14=Ain't Gonna Write Ya
TTITLE15=No Reason or Rhyme
TTITLE16=Rockin' ln the Rock
TTITLE17=Squeeze Box
EXTD="This album is a compilation of the first 15 years of recordings."
EXTT0=
EXTT1=
EXTT2=
EXTT3=
EXTT4=
EXTT5=
EXTT6=
EXTT7=
EXTT8=
EXTT9=
EXTT10=
EXTT11=
EXTT12=
EXTT13=
EXTT14=
EXTT15=
EXTT16=
EXTT17=
PLAYORDER=
